<mxfile host="Electron" agent="Mozilla/5.0 (Windows NT 10.0; Win64; x64) AppleWebKit/537.36 (KHTML, like Gecko) draw.io/24.7.17 Chrome/128.0.6613.36 Electron/32.0.1 Safari/537.36" version="24.7.17">
  <diagram name="Страница — 1" id="ARXXR1rw_hIthz9r6M5H">
    <mxGraphModel dx="1036" dy="614" grid="1" gridSize="10" guides="1" tooltips="1" connect="1" arrows="1" fold="1" page="1" pageScale="1" pageWidth="827" pageHeight="1169" math="0" shadow="0">
      <root>
        <mxCell id="0" />
        <mxCell id="1" parent="0" />
        <mxCell id="T-1WTWTaUL-50sYO0cIZ-1" value="«Component»&lt;br&gt;&lt;b&gt;Госуслуги&lt;/b&gt;" style="html=1;dropTarget=0;whiteSpace=wrap;" parent="1" vertex="1">
          <mxGeometry x="240" y="30" width="260" height="90" as="geometry" />
        </mxCell>
        <mxCell id="T-1WTWTaUL-50sYO0cIZ-2" value="" style="shape=module;jettyWidth=8;jettyHeight=4;" parent="T-1WTWTaUL-50sYO0cIZ-1" vertex="1">
          <mxGeometry x="1" width="20" height="20" relative="1" as="geometry">
            <mxPoint x="-27" y="7" as="offset" />
          </mxGeometry>
        </mxCell>
        <mxCell id="T-1WTWTaUL-50sYO0cIZ-5" value="«Component»&lt;br&gt;&lt;b&gt;Система взаимодействия с МВД&lt;/b&gt;" style="html=1;dropTarget=0;whiteSpace=wrap;" parent="1" vertex="1">
          <mxGeometry x="620" y="30" width="180" height="90" as="geometry" />
        </mxCell>
        <mxCell id="T-1WTWTaUL-50sYO0cIZ-6" value="" style="shape=module;jettyWidth=8;jettyHeight=4;" parent="T-1WTWTaUL-50sYO0cIZ-5" vertex="1">
          <mxGeometry x="1" width="20" height="20" relative="1" as="geometry">
            <mxPoint x="-27" y="7" as="offset" />
          </mxGeometry>
        </mxCell>
        <mxCell id="T-1WTWTaUL-50sYO0cIZ-7" value="«Component»&lt;br&gt;&lt;b&gt;Склад&lt;/b&gt;" style="html=1;dropTarget=0;whiteSpace=wrap;" parent="1" vertex="1">
          <mxGeometry x="280" y="280" width="180" height="90" as="geometry" />
        </mxCell>
        <mxCell id="T-1WTWTaUL-50sYO0cIZ-8" value="" style="shape=module;jettyWidth=8;jettyHeight=4;" parent="T-1WTWTaUL-50sYO0cIZ-7" vertex="1">
          <mxGeometry x="1" width="20" height="20" relative="1" as="geometry">
            <mxPoint x="-27" y="7" as="offset" />
          </mxGeometry>
        </mxCell>
        <mxCell id="T-1WTWTaUL-50sYO0cIZ-9" value="«Component»&lt;br&gt;&lt;b&gt;Почта России&lt;/b&gt;" style="html=1;dropTarget=0;whiteSpace=wrap;" parent="1" vertex="1">
          <mxGeometry x="245" y="480" width="250" height="90" as="geometry" />
        </mxCell>
        <mxCell id="T-1WTWTaUL-50sYO0cIZ-10" value="" style="shape=module;jettyWidth=8;jettyHeight=4;" parent="T-1WTWTaUL-50sYO0cIZ-9" vertex="1">
          <mxGeometry x="1" width="20" height="20" relative="1" as="geometry">
            <mxPoint x="-27" y="7" as="offset" />
          </mxGeometry>
        </mxCell>
        <mxCell id="T-1WTWTaUL-50sYO0cIZ-11" value="«dataBase»&lt;br&gt;&lt;b&gt;Component&lt;/b&gt;" style="html=1;dropTarget=0;whiteSpace=wrap;" parent="1" vertex="1">
          <mxGeometry x="10" y="30" width="180" height="90" as="geometry" />
        </mxCell>
        <mxCell id="T-1WTWTaUL-50sYO0cIZ-12" value="" style="shape=module;jettyWidth=8;jettyHeight=4;" parent="T-1WTWTaUL-50sYO0cIZ-11" vertex="1">
          <mxGeometry x="1" width="20" height="20" relative="1" as="geometry">
            <mxPoint x="-27" y="7" as="offset" />
          </mxGeometry>
        </mxCell>
        <mxCell id="T-1WTWTaUL-50sYO0cIZ-14" value="" style="rounded=0;orthogonalLoop=1;jettySize=auto;html=1;endArrow=halfCircle;endFill=0;endSize=6;strokeWidth=1;sketch=0;exitX=1;exitY=0.5;exitDx=0;exitDy=0;" parent="1" source="T-1WTWTaUL-50sYO0cIZ-1" edge="1">
          <mxGeometry relative="1" as="geometry">
            <mxPoint x="570" y="110" as="sourcePoint" />
            <mxPoint x="550" y="75" as="targetPoint" />
          </mxGeometry>
        </mxCell>
        <mxCell id="T-1WTWTaUL-50sYO0cIZ-15" value="" style="rounded=0;orthogonalLoop=1;jettySize=auto;html=1;endArrow=oval;endFill=0;sketch=0;sourcePerimeterSpacing=0;targetPerimeterSpacing=0;endSize=10;exitX=0;exitY=0.5;exitDx=0;exitDy=0;" parent="1" source="T-1WTWTaUL-50sYO0cIZ-5" edge="1">
          <mxGeometry relative="1" as="geometry">
            <mxPoint x="610" y="200" as="sourcePoint" />
            <mxPoint x="550" y="75" as="targetPoint" />
          </mxGeometry>
        </mxCell>
        <mxCell id="T-1WTWTaUL-50sYO0cIZ-16" value="" style="ellipse;whiteSpace=wrap;html=1;align=center;aspect=fixed;fillColor=none;strokeColor=none;resizable=0;perimeter=centerPerimeter;rotatable=0;allowArrows=0;points=[];outlineConnect=1;" parent="1" vertex="1">
          <mxGeometry x="530" y="160" width="10" height="10" as="geometry" />
        </mxCell>
        <mxCell id="T-1WTWTaUL-50sYO0cIZ-20" value="" style="html=1;verticalAlign=bottom;labelBackgroundColor=none;endArrow=open;endFill=0;dashed=1;rounded=0;exitX=0.5;exitY=1;exitDx=0;exitDy=0;" parent="1" edge="1">
          <mxGeometry x="0.2198" y="-77" width="160" relative="1" as="geometry">
            <mxPoint x="370" y="370" as="sourcePoint" />
            <mxPoint x="370" y="480" as="targetPoint" />
            <mxPoint as="offset" />
          </mxGeometry>
        </mxCell>
        <mxCell id="T-1WTWTaUL-50sYO0cIZ-21" value="" style="rounded=0;orthogonalLoop=1;jettySize=auto;html=1;endArrow=halfCircle;endFill=0;endSize=6;strokeWidth=1;sketch=0;" parent="1" edge="1">
          <mxGeometry relative="1" as="geometry">
            <mxPoint x="370" y="118.85" as="sourcePoint" />
            <mxPoint x="370" y="191.16" as="targetPoint" />
          </mxGeometry>
        </mxCell>
        <mxCell id="T-1WTWTaUL-50sYO0cIZ-22" value="" style="rounded=0;orthogonalLoop=1;jettySize=auto;html=1;endArrow=oval;endFill=0;sketch=0;sourcePerimeterSpacing=0;targetPerimeterSpacing=0;endSize=10;" parent="1" edge="1">
          <mxGeometry relative="1" as="geometry">
            <mxPoint x="370" y="280" as="sourcePoint" />
            <mxPoint x="370" y="193" as="targetPoint" />
          </mxGeometry>
        </mxCell>
        <mxCell id="T-1WTWTaUL-50sYO0cIZ-23" value="" style="ellipse;whiteSpace=wrap;html=1;align=center;aspect=fixed;fillColor=none;strokeColor=none;resizable=0;perimeter=centerPerimeter;rotatable=0;allowArrows=0;points=[];outlineConnect=1;" parent="1" vertex="1">
          <mxGeometry x="405" y="310" width="10" height="10" as="geometry" />
        </mxCell>
        <mxCell id="T-1WTWTaUL-50sYO0cIZ-24" value="" style="endArrow=open;startArrow=none;endFill=0;startFill=0;endSize=8;html=1;verticalAlign=bottom;dashed=1;labelBackgroundColor=none;rounded=0;entryX=0.074;entryY=0.998;entryDx=0;entryDy=0;entryPerimeter=0;exitX=0.06;exitY=0.016;exitDx=0;exitDy=0;exitPerimeter=0;" parent="1" source="T-1WTWTaUL-50sYO0cIZ-9" target="T-1WTWTaUL-50sYO0cIZ-1" edge="1">
          <mxGeometry x="0.0195" y="69" width="160" relative="1" as="geometry">
            <mxPoint x="260" y="470" as="sourcePoint" />
            <mxPoint x="490" y="320" as="targetPoint" />
            <mxPoint as="offset" />
          </mxGeometry>
        </mxCell>
        <mxCell id="UvklLsOTwvfZvh0mpW5H-2" value="Use" style="endArrow=open;endSize=12;dashed=1;html=1;rounded=0;entryX=1;entryY=0.5;entryDx=0;entryDy=0;" edge="1" parent="1" target="T-1WTWTaUL-50sYO0cIZ-11">
          <mxGeometry width="160" relative="1" as="geometry">
            <mxPoint x="240" y="80" as="sourcePoint" />
            <mxPoint x="520" y="320" as="targetPoint" />
          </mxGeometry>
        </mxCell>
      </root>
    </mxGraphModel>
  </diagram>
</mxfile>
